<?xml version="1.0" encoding="UTF-8"?>
<svg id="Lager_1" data-name="Lager 1" xmlns="http://www.w3.org/2000/svg" viewBox="0 0 779 166">
  <defs>
    <style>
      .cls-1 {
        fill: #4f6d63;
      }
    </style>
  </defs>
  <path class="cls-1" d="M3.2,74.79C19.77,18.19,82.92-4.35,125.12.69c42.2,5.04,74.49,42.4,69.02,88.25-5.26,44.04-31.57,67.77-88.58,75.58C19.35,176.33-8.53,114.9,3.2,74.79ZM98.12,43.66c-6.82,0-13.06,1.22-18.72,3.66-5.65,2.34-10.19,5.85-13.6,10.53-3.31,4.68-4.97,10.43-4.97,17.25v45.18h23.54v-39.77c0-10.14,4.58-15.21,13.74-15.21,9.07,0,13.6,5.07,13.6,15.21v39.77h23.54v-45.18c0-6.82-1.71-12.57-5.12-17.25-3.31-4.68-7.8-8.19-13.45-10.53-5.56-2.44-11.75-3.66-18.57-3.66Z"/>
  <path class="cls-1" d="M779,100.78c0,4.44-1.9,7.99-5.71,10.66-3.81,2.6-8.85,3.9-15.13,3.9-2.98,0-6.06-.29-9.23-.86-3.11-.57-5.93-1.27-8.47-2.09-2.47-.82-4.25-1.65-5.33-2.47l2.66-4.85c2.28,1.39,5.23,2.57,8.85,3.52,3.62.95,7.39,1.43,11.32,1.43,4.7,0,8.28-.73,10.75-2.19,2.47-1.46,3.71-3.55,3.71-6.28,0-4.5-3.52-7.17-10.56-7.99l-10.85-1.24c-5.07-.57-8.98-1.97-11.7-4.19-2.73-2.28-4.09-5.27-4.09-8.95,0-4.25,1.81-7.55,5.42-9.9,3.62-2.41,8.76-3.62,15.42-3.62,3.55,0,6.82.32,9.8.95,3.05.57,5.49,1.4,7.33,2.47,1.84,1.01,2.76,2.19,2.76,3.52,0,.63-.19,1.3-.57,2-.38.63-.92,1.14-1.62,1.52-1.65-1.52-4.25-2.76-7.8-3.71-3.55-1.02-7.2-1.52-10.94-1.52-4.31,0-7.64.7-9.99,2.09-2.35,1.33-3.52,3.3-3.52,5.9,0,4.31,3.33,6.85,9.99,7.61l10.85,1.24c11.1,1.27,16.65,5.61,16.65,13.04Z"/>
  <path class="cls-1" d="M684.8,85.84c0-4.06.89-7.58,2.66-10.56,1.84-3.05,4.41-5.39,7.71-7.04,3.36-1.71,7.26-2.57,11.71-2.57s8.41.82,11.71,2.47c3.3,1.65,5.87,4,7.71,7.04,1.84,2.98,2.76,6.53,2.76,10.66v28.17h-6.28v-26.27c0-5.39-1.36-9.52-4.09-12.37-2.73-2.85-6.66-4.28-11.8-4.28s-9.07,1.43-11.8,4.28c-2.67,2.79-4,6.92-4,12.37v26.27h-6.28v-28.17Z"/>
  <path class="cls-1" d="M630.26,103.26c-2.22-3.74-3.33-7.99-3.33-12.75s1.11-9.01,3.33-12.75c2.22-3.74,5.23-6.69,9.04-8.85,3.87-2.16,8.22-3.24,13.04-3.24s9.14,1.08,12.94,3.24c3.87,2.16,6.91,5.11,9.14,8.85,2.22,3.74,3.33,7.99,3.33,12.75s-1.11,9.01-3.33,12.75c-2.22,3.74-5.27,6.69-9.14,8.85-3.81,2.16-8.12,3.24-12.94,3.24s-9.17-1.08-13.04-3.24c-3.81-2.16-6.82-5.11-9.04-8.85ZM668.51,100.59c1.65-2.92,2.47-6.28,2.47-10.09s-.83-7.17-2.47-10.09c-1.59-2.98-3.77-5.3-6.57-6.95-2.79-1.65-5.99-2.47-9.61-2.47s-6.82.82-9.61,2.47c-2.79,1.65-5.01,3.97-6.66,6.95-1.59,2.92-2.38,6.28-2.38,10.09s.79,7.17,2.38,10.09c1.65,2.92,3.87,5.23,6.66,6.95,2.79,1.65,5.99,2.47,9.61,2.47s6.82-.82,9.61-2.47c2.79-1.71,4.98-4.03,6.57-6.95Z"/>
  <path class="cls-1" d="M619.39,114.01h-6.28v-43.78c0-2.16,1.14-3.24,3.42-3.24,1.14,0,2.09.22,2.85.67v46.34ZM612.92,53.77c-.83-.95-1.24-2.06-1.24-3.33s.41-2.35,1.24-3.24c.89-.95,2-1.43,3.33-1.43s2.41.48,3.24,1.43c.89.89,1.33,1.97,1.33,3.24s-.44,2.38-1.33,3.33c-.82.89-1.9,1.33-3.24,1.33s-2.44-.44-3.33-1.33Z"/>
  <path class="cls-1" d="M581.65,57.48c0-2.16,1.14-3.24,3.43-3.24,1.14,0,2.09.22,2.85.67v12.09h16.75c2.35,0,3.52,1.05,3.52,3.14,0,.82-.19,1.68-.57,2.57h-19.7v27.6c0,3.11.83,5.52,2.47,7.23,1.65,1.65,4.03,2.47,7.14,2.47,3.49,0,6.66-.92,9.52-2.76l2.76,4.09c-1.59,1.21-3.62,2.16-6.09,2.85-2.41.76-4.89,1.14-7.42,1.14-4.57,0-8.15-1.24-10.75-3.71-2.6-2.47-3.9-5.9-3.9-10.28v-43.87Z"/>
  <path class="cls-1" d="M572.73,95.17c0,4.06-.92,7.61-2.76,10.66-1.78,3.04-4.35,5.39-7.71,7.04-3.3,1.65-7.2,2.47-11.71,2.47s-8.31-.82-11.61-2.47c-3.3-1.71-5.87-4.06-7.71-7.04-1.84-3.05-2.76-6.6-2.76-10.66v-24.93c0-2.16,1.14-3.24,3.42-3.24,1.14,0,2.09.22,2.85.67v25.6c0,5.39,1.33,9.52,4,12.37,2.73,2.85,6.66,4.28,11.8,4.28s9.07-1.43,11.8-4.28c2.73-2.86,4.09-6.98,4.09-12.37v-23.03c0-2.16,1.14-3.24,3.43-3.24,1.14,0,2.09.22,2.85.67v27.5Z"/>
  <path class="cls-1" d="M519.48,114.01h-6.28V47.11c0-2.16,1.14-3.24,3.43-3.24,1.14,0,2.09.22,2.85.67v69.47Z"/>
  <path class="cls-1" d="M458.67,103.26c-2.22-3.74-3.33-7.99-3.33-12.75s1.11-9.01,3.33-12.75c2.22-3.74,5.23-6.69,9.04-8.85,3.87-2.16,8.22-3.24,13.04-3.24s9.14,1.08,12.94,3.24c3.87,2.16,6.92,5.11,9.14,8.85,2.22,3.74,3.33,7.99,3.33,12.75s-1.11,9.01-3.33,12.75c-2.22,3.74-5.26,6.69-9.14,8.85-3.81,2.16-8.12,3.24-12.94,3.24s-9.17-1.08-13.04-3.24c-3.81-2.16-6.82-5.11-9.04-8.85ZM496.92,100.59c1.65-2.92,2.48-6.28,2.48-10.09s-.83-7.17-2.48-10.09c-1.59-2.98-3.77-5.3-6.57-6.95-2.79-1.65-5.99-2.47-9.61-2.47s-6.82.82-9.61,2.47c-2.79,1.65-5.01,3.97-6.66,6.95-1.59,2.92-2.38,6.28-2.38,10.09s.79,7.17,2.38,10.09c1.65,2.92,3.87,5.23,6.66,6.95,2.79,1.65,5.99,2.47,9.61,2.47s6.82-.82,9.61-2.47c2.79-1.71,4.98-4.03,6.57-6.95Z"/>
  <path class="cls-1" d="M451.76,100.78c0,4.44-1.9,7.99-5.71,10.66-3.81,2.6-8.85,3.9-15.13,3.9-2.98,0-6.06-.29-9.23-.86-3.11-.57-5.93-1.27-8.47-2.09-2.47-.82-4.25-1.65-5.33-2.47l2.66-4.85c2.28,1.39,5.23,2.57,8.85,3.52,3.62.95,7.39,1.43,11.32,1.43,4.7,0,8.28-.73,10.75-2.19,2.48-1.46,3.71-3.55,3.71-6.28,0-4.5-3.52-7.17-10.56-7.99l-10.85-1.24c-5.08-.57-8.98-1.97-11.71-4.19-2.73-2.28-4.09-5.27-4.09-8.95,0-4.25,1.81-7.55,5.42-9.9,3.62-2.41,8.76-3.62,15.42-3.62,3.55,0,6.82.32,9.8.95,3.05.57,5.49,1.4,7.33,2.47,1.84,1.01,2.76,2.19,2.76,3.52,0,.63-.19,1.3-.57,2-.38.63-.92,1.14-1.62,1.52-1.65-1.52-4.25-2.76-7.8-3.71-3.55-1.02-7.2-1.52-10.94-1.52-4.31,0-7.65.7-9.99,2.09-2.35,1.33-3.52,3.3-3.52,5.9,0,4.31,3.33,6.85,9.99,7.61l10.85,1.24c11.1,1.27,16.65,5.61,16.65,13.04Z"/>
  <path class="cls-1" d="M338.76,50.63c0-2.22.7-3.9,2.09-5.04,1.39-1.14,3.36-1.71,5.9-1.71,1.27,0,2.54.13,3.81.38,1.27.25,2.44.6,3.52,1.05v24.08c1.59-1.65,3.59-2.92,6-3.81,2.41-.95,5.04-1.43,7.9-1.43,4.44,0,8.41,1.11,11.9,3.33,3.55,2.22,6.38,5.27,8.47,9.14,2.09,3.81,3.14,8.18,3.14,13.13s-1.11,9.36-3.33,13.23c-2.16,3.87-5.23,6.92-9.23,9.14-3.93,2.16-8.63,3.24-14.08,3.24s-9.96-1.08-13.89-3.24c-3.87-2.16-6.88-5.27-9.04-9.33-2.09-4.12-3.14-9.04-3.14-14.75v-37.4ZM372.73,81.28c-2.03-2.16-4.66-3.24-7.9-3.24s-5.87,1.08-7.9,3.24c-2.03,2.09-3.04,4.89-3.04,8.37s1.01,6.31,3.04,8.47c2.03,2.09,4.66,3.14,7.9,3.14s5.87-1.05,7.9-3.14c2.03-2.16,3.05-4.98,3.05-8.47s-1.02-6.28-3.05-8.37Z"/>
  <path class="cls-1" d="M332.29,113.73c-.7.19-1.9.38-3.62.57-1.65.19-3.58.35-5.8.48-2.16.19-4.41.32-6.76.38-2.28.13-4.41.19-6.38.19-8.12,0-14.27-1.3-18.46-3.9-4.19-2.6-6.28-6.79-6.28-12.56,0-5.27,1.84-9.2,5.52-11.8,3.68-2.66,9.64-4,17.89-4,3.87,0,6.69.13,8.47.38,0-4.76-3.9-7.14-11.7-7.14-2.6,0-5.08.25-7.42.76-2.28.51-4.09,1.21-5.43,2.09-.89-.76-1.68-1.78-2.38-3.05-.7-1.33-1.05-2.66-1.05-4,0-2.47,1.4-4.41,4.19-5.81,2.79-1.46,7.04-2.19,12.75-2.19,8.69,0,15.26,1.74,19.7,5.23,4.51,3.49,6.76,8.69,6.76,15.61v28.74ZM300.22,99.17c0,3.55,3.14,5.33,9.42,5.33,1.59,0,3.08-.03,4.47-.1,1.46-.13,2.41-.25,2.86-.38v-10.18c-1.14-.13-2.41-.22-3.81-.29-1.4-.13-2.63-.19-3.71-.19-3.36,0-5.74.51-7.14,1.52-1.39,1.02-2.09,2.44-2.09,4.28Z"/>
  <path class="cls-1" d="M231.3,84.61c0-4.44,1.08-8.18,3.24-11.23,2.22-3.05,5.17-5.33,8.85-6.85,3.68-1.59,7.74-2.38,12.18-2.38s8.47.79,12.09,2.38c3.68,1.52,6.6,3.81,8.76,6.85,2.22,3.05,3.33,6.79,3.33,11.23v29.41h-15.32v-25.88c0-6.6-2.95-9.9-8.85-9.9s-8.95,3.3-8.95,9.9v25.88h-15.32v-29.41Z"/>
</svg>